<?xml version="1.0" encoding="utf-8"?>
<!-- Generator: Adobe Illustrator 18.0.0, SVG Export Plug-In . SVG Version: 6.00 Build 0)  -->
<!DOCTYPE svg PUBLIC "-//W3C//DTD SVG 1.1//EN" "http://www.w3.org/Graphics/SVG/1.1/DTD/svg11.dtd">
<svg version="1.1" id="Layer_1" xmlns="http://www.w3.org/2000/svg" xmlns:xlink="http://www.w3.org/1999/xlink" x="0px" y="0px"
	 viewBox="0 0 252 252" enable-background="new 0 0 252 252" xml:space="preserve">
<g>
	<g>
		<path fill="#D1B22B" d="M116.3,149l0.9-5l-3.7-3.6c0,0,0,0,0,0c0,0,5.1-0.8,5.1-0.8s2.3-4.6,2.3-4.7c0,0,2.3,4.7,2.3,4.7
			s5.1,0.7,5.1,0.7c0,0-3.7,3.6-3.7,3.6l0.9,5.1c0,0,0,0,0,0.1c0,0-4.6-2.4-4.6-2.4S116.3,149.1,116.3,149
			C116.3,149.1,116.3,149.1,116.3,149z"/>
		<path fill="#D1B22B" d="M120.9,136.1l1.7,3.5l0.2,0.5l0.5,0.1l3.9,0.6l-2.8,2.7l-0.4,0.4l0.1,0.5l0.7,3.9l-3.5-1.8l-0.5-0.2
			l-0.5,0.2l-3.5,1.8l0.7-3.9l0.1-0.5l-0.4-0.4l-2.8-2.7l3.9-0.6l0.5-0.1l0.2-0.5L120.9,136.1 M120.9,134.4c-0.2,0-0.3,0.1-0.5,0.4
			l-2.2,4.4l-4.8,0.7c-0.4,0.1-0.5,0.2-0.5,0.4c0,0.1,0.1,0.3,0.2,0.5l3.5,3.4l-0.8,4.8c0,0.1,0,0.2,0,0.2c0,0.1,0,0.2,0.1,0.3
			c0.1,0.1,0.2,0.1,0.3,0.1c0.1,0,0.2,0,0.4-0.1l4.3-2.3l4.3,2.3c0.1,0.1,0.3,0.1,0.4,0.1c0.1,0,0.2,0,0.3-0.1s0.1-0.2,0.1-0.3
			c0-0.1,0-0.1,0-0.2l-0.8-4.8l3.5-3.4c0.2-0.2,0.2-0.3,0.2-0.5c0-0.2-0.2-0.4-0.5-0.4l-4.8-0.7l-2.2-4.4
			C121.2,134.5,121.1,134.4,120.9,134.4L120.9,134.4z"/>
	</g>
</g>
<g>
	<g>
		<path fill="#FFDE17" d="M116.3,132.7l0.9-5l-3.7-3.6c0,0,0,0,0,0c0,0,5.1-0.8,5.1-0.8s2.3-4.6,2.3-4.7c0,0,2.3,4.7,2.3,4.7
			s5.1,0.7,5.1,0.7c0,0-3.7,3.6-3.7,3.6l0.9,5.1c0,0,0,0,0,0.1c0,0-4.6-2.4-4.6-2.4S116.3,132.8,116.3,132.7
			C116.3,132.7,116.3,132.7,116.3,132.7z"/>
		<path fill="#FFDE17" d="M120.9,119.7l1.7,3.5l0.2,0.5l0.5,0.1l3.9,0.6l-2.8,2.7l-0.4,0.4l0.1,0.5l0.7,3.9l-3.5-1.8l-0.5-0.2
			l-0.5,0.2l-3.5,1.8l0.7-3.9l0.1-0.5l-0.4-0.4l-2.8-2.7l3.9-0.6l0.5-0.1l0.2-0.5L120.9,119.7 M120.9,118c-0.2,0-0.3,0.1-0.5,0.4
			l-2.2,4.4l-4.8,0.7c-0.4,0.1-0.5,0.2-0.5,0.4c0,0.1,0.1,0.3,0.2,0.5l3.5,3.4l-0.8,4.8c0,0.1,0,0.2,0,0.2c0,0.1,0,0.2,0.1,0.3
			s0.2,0.1,0.3,0.1c0.1,0,0.2,0,0.4-0.1l4.3-2.3l4.3,2.3c0.1,0.1,0.3,0.1,0.4,0.1c0.1,0,0.2,0,0.3-0.1s0.1-0.2,0.1-0.3
			c0-0.1,0-0.1,0-0.2l-0.8-4.8l3.5-3.4c0.2-0.2,0.2-0.3,0.2-0.5c0-0.2-0.2-0.4-0.5-0.4l-4.8-0.7l-2.2-4.4
			C121.2,118.2,121.1,118,120.9,118L120.9,118z"/>
	</g>
</g>
<g>
	<g>
		<path fill="#FFFFFF" d="M116.2,116.4l0.9-5l-3.7-3.6c0,0,0,0,0,0c0,0,5.1-0.8,5.1-0.8s2.3-4.6,2.3-4.7c0,0,2.3,4.7,2.3,4.7
			s5.1,0.7,5.1,0.7c0,0-3.7,3.6-3.7,3.6l0.9,5.1c0,0,0,0,0,0.1c0,0-4.6-2.4-4.6-2.4S116.2,116.4,116.2,116.4
			C116.2,116.4,116.2,116.4,116.2,116.4z"/>
		<path fill="#939598" d="M120.8,103.4l1.7,3.5l0.2,0.5l0.5,0.1l3.9,0.6l-2.8,2.7l-0.4,0.4l0.1,0.5l0.7,3.9l-3.5-1.8l-0.5-0.2
			l-0.5,0.2l-3.5,1.8l0.7-3.9l0.1-0.5l-0.4-0.4l-2.8-2.7l3.9-0.6l0.5-0.1l0.2-0.5L120.8,103.4 M120.8,101.7c-0.2,0-0.3,0.1-0.5,0.4
			l-2.2,4.4l-4.8,0.7c-0.4,0.1-0.5,0.2-0.5,0.4c0,0.1,0.1,0.3,0.2,0.5l3.5,3.4l-0.8,4.8c0,0.1,0,0.2,0,0.2c0,0.1,0,0.2,0.1,0.3
			s0.2,0.1,0.3,0.1c0.1,0,0.2,0,0.4-0.1l4.3-2.3l4.3,2.3c0.1,0.1,0.3,0.1,0.4,0.1c0.1,0,0.2,0,0.3-0.1s0.1-0.2,0.1-0.3
			c0-0.1,0-0.1,0-0.2l-0.8-4.8l3.5-3.4c0.2-0.2,0.2-0.3,0.2-0.5c0-0.2-0.2-0.4-0.5-0.4l-4.8-0.7l-2.2-4.4
			C121.1,101.8,121,101.7,120.8,101.7L120.8,101.7z"/>
	</g>
</g>
</svg>
